<?xml version="1.0" encoding="UTF-8"?>
<svg version="1.1" xmlns="http://www.w3.org/2000/svg" width="149" height="199">
<path d="M0 0 C49.17 0 98.34 0 149 0 C149 65.67 149 131.34 149 199 C99.83 199 50.66 199 0 199 C0 133.33 0 67.66 0 0 Z " fill="#ECECEC" transform="translate(0,0)"/>
<path d="M0 0 C2 0.75 2 0.75 4 3.75 C4.63030444 8.69974372 4.35150796 13.29451123 2 17.75 C1.4121875 19.11125 1.4121875 19.11125 0.8125 20.5 C-1 22.75 -1 22.75 -4.6875 23.5625 C-5.780625 23.624375 -6.87375 23.68625 -8 23.75 C-8 23.09 -8 22.43 -8 21.75 C-8.54785156 22.22695312 -9.09570312 22.70390625 -9.66015625 23.1953125 C-13.70148951 25.88053894 -18.24015977 25.89166191 -23 25.75 C-25.9375 24.375 -25.9375 24.375 -28 22.75 C-30.19130534 22.05420546 -30.19130534 22.05420546 -32 21.75 C-32 19.77 -32 17.79 -32 15.75 C-31.34 15.75 -30.68 15.75 -30 15.75 C-30.33 14.1 -30.66 12.45 -31 10.75 C-27.3558226 8.3205484 -25.28758728 8.58820425 -21 8.75 C-20.566875 7.821875 -20.566875 7.821875 -20.125 6.875 C-19 4.75 -19 4.75 -17 2.75 C-12.82016197 2.54774977 -9.00952575 2.41349142 -5 3.75 C-4.67 2.76 -4.34 1.77 -4 0.75 C-2 -0.25 -2 -0.25 0 0 Z " fill="#A3597C" transform="translate(88,69.25)"/>
<path d="M0 0 C7.68490153 5.0940919 7.68490153 5.0940919 9 8.875 C9 9.57625 9 10.2775 9 11 C6.69 11.33 4.38 11.66 2 12 C2.03029297 12.85078125 2.06058594 13.7015625 2.09179688 14.578125 C2.92670316 38.7261836 3.11296193 62.83869895 3 87 C-8.22 87 -19.44 87 -31 87 C-31 86.34 -31 85.68 -31 85 C-30.071875 84.5978125 -30.071875 84.5978125 -29.125 84.1875 C-26.7004767 83.04443152 -26.7004767 83.04443152 -25 80 C-24.34 80 -23.68 80 -23 80 C-22.67 81.32 -22.34 82.64 -22 84 C-14.74 84.33 -7.48 84.66 0 85 C0.02484144 77.22615793 0.04292677 69.45233931 0.05493164 61.6784668 C0.05993987 59.03751218 0.06674836 56.3965603 0.07543945 53.75561523 C0.08765942 49.94514282 0.09326357 46.13470728 0.09765625 42.32421875 C0.10281754 41.15606125 0.10797882 39.98790375 0.11329651 38.78434753 C0.11371156 32.62796564 -0.11082917 26.58570142 -0.76637268 20.46272278 C-1.36036127 14.20134366 -1.63813581 8.80389878 1 3 C0.67 2.01 0.34 1.02 0 0 Z " fill="#C7C7C7" transform="translate(117,76)"/>
<path d="M0 0 C0.66 2.64 1.32 5.28 2 8 C2.66 8 3.32 8 4 8 C4.33 8.99 4.66 9.98 5 11 C6.65 11 8.3 11 10 11 C10.33 12.32 10.66 13.64 11 15 C5.86813609 17.23696632 1.37794962 17.3337315 -4 16 C-4.66 15.34 -5.32 14.68 -6 14 C-8.06874034 13.3574765 -8.06874034 13.3574765 -10 13 C-10 11.02 -10 9.04 -10 7 C-9.34 7 -8.68 7 -8 7 C-8.33 5.35 -8.66 3.7 -9 2 C-5.5647952 -0.29013653 -4.014669 -0.17842973 0 0 Z " fill="#C0C7A0" transform="translate(66,78)"/>
<path d="M0 0 C0.66 0.33 1.32 0.66 2 1 C1.67 2.32 1.34 3.64 1 5 C0.34 5 -0.32 5 -1 5 C-1.33 7.31 -1.66 9.62 -2 12 C-1.34 12 -0.68 12 0 12 C0 12.66 0 13.32 0 14 C-5.97189807 15.0716941 -11.69272046 15.04760975 -17.74609375 14.87890625 C-18.75720718 14.85529526 -19.76832062 14.83168427 -20.81007385 14.80735779 C-24.01937506 14.73117375 -27.2284069 14.64695615 -30.4375 14.5625 C-32.62173189 14.50923395 -34.80597668 14.45649391 -36.99023438 14.40429688 C-42.32698726 14.27562037 -47.66354226 14.1403587 -53 14 C-53 13.34 -53 12.68 -53 12 C-36.83 12 -20.66 12 -4 12 C-3.67 10.02 -3.34 8.04 -3 6 C-2.06057514 3.97084231 -1.07401615 1.96124688 0 0 Z " fill="#CDCDCD" transform="translate(84,149)"/>
<path d="M0 0 C0.66 0.33 1.32 0.66 2 1 C2 1.66 2 2.32 2 3 C2.66 3 3.32 3 4 3 C4.33 2.01 4.66 1.02 5 0 C7.9375 0.375 7.9375 0.375 11 1 C12.52491998 4.04983996 12.23562548 6.6423369 12 10 C10.8125 11.9375 10.8125 11.9375 9 13 C6.3125 13.1875 6.3125 13.1875 4 13 C3.67 11.68 3.34 10.36 3 9 C2.34 9 1.68 9 1 9 C-0.61949011 6.42786866 -1.04408751 5.32330841 -0.625 2.25 C-0.41875 1.5075 -0.2125 0.765 0 0 Z " fill="#C73348" transform="translate(67,77)"/>
<path d="M0 0 C7.68490153 5.0940919 7.68490153 5.0940919 9 8.875 C9 9.57625 9 10.2775 9 11 C6.69 11.33 4.38 11.66 2 12 C2 19.59 2 27.18 2 35 C1.67 35 1.34 35 1 35 C-2.23348971 10.11367737 -2.23348971 10.11367737 1 3 C0.67 2.01 0.34 1.02 0 0 Z " fill="#BEBEBE" transform="translate(117,76)"/>
<path d="M0 0 C2 0.75 2 0.75 4 3.75 C4.63680993 8.75083094 4.27103604 13.20792792 2 17.75 C1.67 18.74 1.34 19.73 1 20.75 C0.01 20.75 -0.98 20.75 -2 20.75 C-2.33 19.76 -2.66 18.77 -3 17.75 C-3.66 17.42 -4.32 17.09 -5 16.75 C-4.45276317 13.37537285 -3.9451 11.66765 -2 8.75 C-1.01 9.08 -0.02 9.41 1 9.75 C1 10.41 1 11.07 1 11.75 C1.66 11.75 2.32 11.75 3 11.75 C2.67 9.77 2.34 7.79 2 5.75 C0.02 5.09 -1.96 4.43 -4 3.75 C-4 2.76 -4 1.77 -4 0.75 C-2 -0.25 -2 -0.25 0 0 Z " fill="#82745F" transform="translate(88,69.25)"/>
<path d="M0 0 C2.8356584 0.3802607 5.38973983 1.21370843 8.0390625 2.2734375 C7.3790625 2.9334375 6.7190625 3.5934375 6.0390625 4.2734375 C6.3575802 6.38164547 6.3575802 6.38164547 7.0390625 8.2734375 C6.0490625 8.7684375 6.0490625 8.7684375 5.0390625 9.2734375 C4.3790625 7.9534375 3.7190625 6.6334375 3.0390625 5.2734375 C2.4615625 5.6240625 1.8840625 5.9746875 1.2890625 6.3359375 C-1.31895526 7.42261157 -2.35511379 7.20408883 -4.9609375 6.2734375 C-5.2909375 6.9334375 -5.6209375 7.5934375 -5.9609375 8.2734375 C-6.6209375 8.2734375 -7.2809375 8.2734375 -7.9609375 8.2734375 C-8.6209375 6.9534375 -9.2809375 5.6334375 -9.9609375 4.2734375 C-7.05280742 0.39593073 -4.81815445 -0.23459179 0 0 Z " fill="#9F7762" transform="translate(76.9609375,71.7265625)"/>
<path d="M0 0 C0 0.99 0 1.98 0 3 C-1.32 3.33 -2.64 3.66 -4 4 C-4 5.32 -4 6.64 -4 8 C-3.01 8.33 -2.02 8.66 -1 9 C-1.33 9.66 -1.66 10.32 -2 11 C-2.66 10.67 -3.32 10.34 -4 10 C-4 11.32 -4 12.64 -4 14 C-6.97 13.505 -6.97 13.505 -10 13 C-10 11.02 -10 9.04 -10 7 C-9.34 7 -8.68 7 -8 7 C-8.33 5.35 -8.66 3.7 -9 2 C-5.5647952 -0.29013653 -4.014669 -0.17842973 0 0 Z " fill="#5BA482" transform="translate(66,78)"/>
<path d="M0 0 C3.86933162 0.57323431 6.15222057 2.38953552 9 5 C9 5.66 9 6.32 9 7 C10.32 7.66 11.64 8.32 13 9 C12.67 9.66 12.34 10.32 12 11 C11.01 10.34 10.02 9.68 9 9 C8.67 9.99 8.34 10.98 8 12 C6.23537317 8.91190305 6 7.76687864 6 4 C5.34 4 4.68 4 4 4 C4 4.66 4 5.32 4 6 C3.34 6 2.68 6 2 6 C2.0825 6.9075 2.165 7.815 2.25 8.75 C1.94535561 12.71037702 0.85088949 13.4184859 -2 16 C-1.85833643 14.08302063 -1.71150416 12.16642277 -1.5625 10.25 C-1.48128906 9.18265625 -1.40007812 8.1153125 -1.31640625 7.015625 C-1.05909227 4.56320038 -0.68187782 2.36078709 0 0 Z " fill="#DFDFDF" transform="translate(110,41)"/>
<path d="M0 0 C3 0 6 0 9 0 C9.969375 -0.061875 10.93875 -0.12375 11.9375 -0.1875 C15 0 15 0 16.875 1.5 C17.24625 1.995 17.6175 2.49 18 3 C14.29583874 5.37590142 11.07015427 5.20500286 6.75 5.125 C5.48671875 5.10695313 4.2234375 5.08890625 2.921875 5.0703125 C1.95765625 5.04710938 0.9934375 5.02390625 0 5 C0 3.35 0 1.7 0 0 Z " fill="#C0C1C1" transform="translate(74,97)"/>
<path d="M0 0 C0.66 0 1.32 0 2 0 C2.33 1.32 2.66 2.64 3 4 C10.26 4.33 17.52 4.66 25 5 C25.33 3.68 25.66 2.36 26 1 C26 2.65 26 4.3 26 6 C15.31563078 7.07419152 4.72655709 7.10194194 -6 7 C-6 6.34 -6 5.68 -6 5 C-5.38125 4.731875 -4.7625 4.46375 -4.125 4.1875 C-1.7004767 3.04443152 -1.7004767 3.04443152 0 0 Z " fill="#D7D7D7" transform="translate(92,156)"/>
<path d="M0 0 C0.33 1.32 0.66 2.64 1 4 C1.66 4 2.32 4 3 4 C1.79618552 6.49361571 0.54571278 8.68143083 -1 11 C-1.66 11 -2.32 11 -3 11 C-2.67 9.68 -2.34 8.36 -2 7 C-2.93972656 8.0828125 -2.93972656 8.0828125 -3.8984375 9.1875 C-4.71570312 10.115625 -5.53296875 11.04375 -6.375 12 C-7.18710937 12.928125 -7.99921875 13.85625 -8.8359375 14.8125 C-9.55007812 15.534375 -10.26421875 16.25625 -11 17 C-11.66 17 -12.32 17 -13 17 C-13 16.34 -13 15.68 -13 15 C-11.33333333 13.33333333 -9.66666667 11.66666667 -8 10 C-6.65729179 8.00628175 -5.32346506 6.0065438 -4 4 C-2.70317626 2.63113049 -1.38176866 1.2830709 0 0 Z " fill="#C6C6C6" transform="translate(38,75)"/>
<path d="M0 0 C0.66 0 1.32 0 2 0 C0.67405966 2.87287075 -0.94761412 5.41111135 -2.72265625 8.0234375 C-6.45810781 13.80367752 -10.00429235 19.8009614 -13 26 C-13.82193222 23.65942846 -14.16347293 22.4410801 -13.28735352 20.07714844 C-12.90506592 19.4277832 -12.52277832 18.77841797 -12.12890625 18.109375 C-11.71962891 17.40039062 -11.31035156 16.69140625 -10.88867188 15.9609375 C-10.45103516 15.23132813 -10.01339844 14.50171875 -9.5625 13.75 C-8.9118457 12.63238281 -8.9118457 12.63238281 -8.24804688 11.4921875 C-7.1763557 9.65500263 -6.08960023 7.82662026 -5 6 C-4.34 6 -3.68 6 -3 6 C-2.690625 5.195625 -2.38125 4.39125 -2.0625 3.5625 C-1 1 -1 1 0 0 Z " fill="#C6C6C6" transform="translate(142,65)"/>
<path d="M0 0 C1.32 0 2.64 0 4 0 C4 1.32 4 2.64 4 4 C4.66 4 5.32 4 6 4 C6 2.68 6 1.36 6 0 C9.3 0 12.6 0 16 0 C15.67 0.66 15.34 1.32 15 2 C14.01 2 13.02 2 12 2 C11.01 3.485 11.01 3.485 10 5 C6.35590321 5.95063395 3.57969574 6.23912545 0 5 C0 3.35 0 1.7 0 0 Z " fill="#AFAFAE" transform="translate(57,97)"/>
<path d="M0 0 C0.33 0 0.66 0 1 0 C1 1.65 1 3.3 1 5 C0.01 5.495 0.01 5.495 -1 6 C-1.66 5.67 -2.32 5.34 -3 5 C-3 6.65 -3 8.3 -3 10 C-4.65 10 -6.3 10 -8 10 C-8 9.01 -8 8.02 -8 7 C-7.01 6.67 -6.02 6.34 -5 6 C-7.97 5.505 -7.97 5.505 -11 5 C-10.67 4.34 -10.34 3.68 -10 3 C-7.96875 2.40234375 -7.96875 2.40234375 -5.5 1.9375 C-2.46226779 1.54135157 -2.46226779 1.54135157 0 0 Z " fill="#E0DFDA" transform="translate(77,92)"/>
<path d="M0 0 C0.99 0.33 1.98 0.66 3 1 C3 1.66 3 2.32 3 3 C4.32 2.67 5.64 2.34 7 2 C8.35439668 4.70879335 8.06501451 7.00933268 8 10 C6 10 6 10 4.375 8.5 C3.92125 8.005 3.4675 7.51 3 7 C2.34 8.32 1.68 9.64 1 11 C-1.2195122 2.43902439 -1.2195122 2.43902439 0 0 Z " fill="#AA8C79" transform="translate(83,71)"/>
<path d="M0 0 C0.66 0.33 1.32 0.66 2 1 C2 1.66 2 2.32 2 3 C2.66 3 3.32 3 4 3 C4.33 2.01 4.66 1.02 5 0 C7.97 0.495 7.97 0.495 11 1 C11.33 2.65 11.66 4.3 12 6 C11.67 5.34 11.34 4.68 11 4 C10.071875 4.185625 9.14375 4.37125 8.1875 4.5625 C5 5 5 5 2 4 C2.33 5.65 2.66 7.3 3 9 C2.34 9 1.68 9 1 9 C-0.61949011 6.42786866 -1.04408751 5.32330841 -0.625 2.25 C-0.41875 1.5075 -0.2125 0.765 0 0 Z " fill="#AC444B" transform="translate(67,77)"/>
<path d="M0 0 C0.33 1.32 0.66 2.64 1 4 C-3.11995777 5.62882052 -5.72025411 6.30770013 -10 5 C-10.66 4.67 -11.32 4.34 -12 4 C-12 3.34 -12 2.68 -12 2 C-10.68 2.33 -9.36 2.66 -8 3 C-8 2.34 -8 1.68 -8 1 C-5.23735711 0.40267181 -2.83967231 0 0 0 Z " fill="#BBA770" transform="translate(76,89)"/>
<path d="M0 0 C1.9453125 0.2421875 1.9453125 0.2421875 4.125 0.875 C4.84945312 1.07867187 5.57390625 1.28234375 6.3203125 1.4921875 C6.87460938 1.65976563 7.42890625 1.82734375 8 2 C7.34 2.66 6.68 3.32 6 4 C6.3185177 6.10820797 6.3185177 6.10820797 7 8 C6.01 8.495 6.01 8.495 5 9 C4.34 7.68 3.68 6.36 3 5 C1.02 5.99 1.02 5.99 -1 7 C-1.625 4.625 -1.625 4.625 -2 2 C-1.34 1.34 -0.68 0.68 0 0 Z " fill="#85604F" transform="translate(77,72)"/>
<path d="M0 0 C4.7312253 1.49407115 4.7312253 1.49407115 6.0625 4 C6.371875 4.66 6.68125 5.32 7 6 C9.0335948 7.26804566 9.0335948 7.26804566 11 8 C10.67 8.66 10.34 9.32 10 10 C9.01 9.34 8.02 8.68 7 8 C6.67 8.99 6.34 9.98 6 11 C4.23537317 7.91190305 4 6.76687864 4 3 C3.34 3 2.68 3 2 3 C1.67 3.66 1.34 4.32 1 5 C0.67 3.35 0.34 1.7 0 0 Z " fill="#CACACA" transform="translate(112,42)"/>
<path d="M0 0 C0.66 0.33 1.32 0.66 2 1 C1.67 2.32 1.34 3.64 1 5 C0.34 5 -0.32 5 -1 5 C-1.33 7.31 -1.66 9.62 -2 12 C-1.34 12 -0.68 12 0 12 C0 12.66 0 13.32 0 14 C-2.97 13.505 -2.97 13.505 -6 13 C-5.34 12.67 -4.68 12.34 -4 12 C-3.7834375 10.6696875 -3.7834375 10.6696875 -3.5625 9.3125 C-2.95590616 5.74033629 -1.73108405 3.16111 0 0 Z " fill="#D5D5D5" transform="translate(84,149)"/>
<path d="M0 0 C2 0.875 2 0.875 3.25 3.4375 C3.4975 4.241875 3.745 5.04625 4 5.875 C-1.75 5 -1.75 5 -4 3.875 C-4 2.885 -4 1.895 -4 0.875 C-2 -0.125 -2 -0.125 0 0 Z " fill="#8A7C6D" transform="translate(88,69.125)"/>
<path d="M0 0 C0.99 0.33 1.98 0.66 3 1 C3 1.66 3 2.32 3 3 C0.35541621 4.32229189 -1.67761301 4.09677194 -4.625 4.0625 C-5.62789062 4.05347656 -6.63078125 4.04445313 -7.6640625 4.03515625 C-8.43492188 4.02355469 -9.20578125 4.01195313 -10 4 C-8.6953125 2.5078125 -8.6953125 2.5078125 -7 1 C-3.875 0.875 -3.875 0.875 -1 1 C-0.67 0.67 -0.34 0.34 0 0 Z " fill="#DBDBDB" transform="translate(134,60)"/>
<path d="M0 0 C5.53846154 -0.36923077 5.53846154 -0.36923077 7.875 1.5 C8.24625 1.995 8.6175 2.49 9 3 C5.86501708 4.85776765 3.62528568 5.20140476 0 5 C0.66 4.01 1.32 3.02 2 2 C1.34 1.34 0.68 0.68 0 0 Z " fill="#A09EA0" transform="translate(83,97)"/>
<path d="M0 0 C5.78461538 4.30769231 5.78461538 4.30769231 6.875 7.8125 C6.936875 8.8953125 6.936875 8.8953125 7 10 C6.01 10 5.02 10 4 10 C1.125 3.375 1.125 3.375 0 0 Z " fill="#9F9F9F" transform="translate(117,76)"/>
<path d="M0 0 C2.475 0.99 2.475 0.99 5 2 C4.67 2.66 4.34 3.32 4 4 C3.34 3.67 2.68 3.34 2 3 C2 3.66 2 4.32 2 5 C3.32 5 4.64 5 6 5 C6 5.66 6 6.32 6 7 C3.0625 6.625 3.0625 6.625 0 6 C-1.24546405 3.50907189 -0.7767578 2.58919267 0 0 Z " fill="#C4CCAE" transform="translate(62,88)"/>
<path d="M0 0 C0.33 0.99 0.66 1.98 1 3 C1.99 3.33 2.98 3.66 4 4 C3.67 4.66 3.34 5.32 3 6 C2.34 5.67 1.68 5.34 1 5 C1 6.32 1 7.64 1 9 C-1.97 8.505 -1.97 8.505 -5 8 C-4.67 7.34 -4.34 6.68 -4 6 C-2.02 6.495 -2.02 6.495 0 7 C-0.185625 6.401875 -0.37125 5.80375 -0.5625 5.1875 C-1 3 -1 3 0 0 Z " fill="#84A984" transform="translate(61,83)"/>
<path d="M0 0 C0.4125 0.45375 0.825 0.9075 1.25 1.375 C3.06408095 3.05950374 4.75285627 3.99265971 7 5 C6.67 5.99 6.34 6.98 6 8 C5.01 8 4.02 8 3 8 C2.67 7.01 2.34 6.02 2 5 C1.34 4.67 0.68 4.34 0 4 C0 2.68 0 1.36 0 0 Z " fill="#796F72" transform="translate(83,82)"/>
<path d="M0 0 C1.32 0 2.64 0 4 0 C4 0.66 4 1.32 4 2 C4.66 2 5.32 2 6 2 C5.67 2.99 5.34 3.98 5 5 C3.68 4.67 2.36 4.34 1 4 C0.67 2.68 0.34 1.36 0 0 Z " fill="#4B7C5B" transform="translate(84,81)"/>
<path d="M0 0 C-0.33 0.66 -0.66 1.32 -1 2 C-3.64860427 2.59355614 -6.29197322 2.74209269 -9 3 C-9 2.34 -9 1.68 -9 1 C-3.375 -1.125 -3.375 -1.125 0 0 Z " fill="#C6BC85" transform="translate(77,92)"/>
<path d="M0 0 C0.99 0 1.98 0 3 0 C3.33 1.32 3.66 2.64 4 4 C3.01 4 2.02 4 1 4 C0.67 4.66 0.34 5.32 0 6 C0 5.34 0 4.68 0 4 C-0.66 4 -1.32 4 -2 4 C-1 1 -1 1 0 0 Z " fill="#B9B896" transform="translate(67,86)"/>
<path d="M0 0 C1.65 0 3.3 0 5 0 C5 0.66 5 1.32 5 2 C4.071875 2.4021875 4.071875 2.4021875 3.125 2.8125 C0.7004767 3.95556848 0.7004767 3.95556848 -1 7 C-1.33 5.68 -1.66 4.36 -2 3 C-1.34 3 -0.68 3 0 3 C0 2.01 0 1.02 0 0 Z " fill="#329B68" transform="translate(61,79)"/>
<path d="M0 0 C0.99 0 1.98 0 3 0 C3.33 2.31 3.66 4.62 4 7 C3.01 7.495 3.01 7.495 2 8 C0.23537317 4.91190305 0 3.76687864 0 0 Z " fill="#BEBEBE" transform="translate(58,35)"/>
<path d="M0 0 C1.67542976 0.28604898 3.34385343 0.61781233 5 1 C5 1.99 5 2.98 5 4 C4.01 3.34 3.02 2.68 2 2 C1.67 2.99 1.34 3.98 1 5 C0.34 3.68 -0.32 2.36 -1 1 C-0.67 0.67 -0.34 0.34 0 0 Z " fill="#D4D4D4" transform="translate(117,48)"/>
<path d="M0 0 C0.66 0 1.32 0 2 0 C2.1875 2.875 2.1875 2.875 2 6 C1.01 6.66 0.02 7.32 -1 8 C-1.125 2.25 -1.125 2.25 0 0 Z " fill="#D8D8D8" transform="translate(109,49)"/>
<path d="M0 0 C0.66 0.66 1.32 1.32 2 2 C1.625 4.625 1.625 4.625 1 7 C0.34 7 -0.32 7 -1 7 C-1.625 4.625 -1.625 4.625 -2 2 C-1.34 1.34 -0.68 0.68 0 0 Z " fill="#B1617F" transform="translate(80,76)"/>
<path d="M0 0 C0.66 0.33 1.32 0.66 2 1 C1.67 2.32 1.34 3.64 1 5 C0.34 5 -0.32 5 -1 5 C-1 5.66 -1 6.32 -1 7 C-1.66 6.67 -2.32 6.34 -3 6 C-2.01 4.02 -1.02 2.04 0 0 Z " fill="#DCDCDC" transform="translate(84,149)"/>
<path d="M0 0 C0.33 0.66 0.66 1.32 1 2 C1.66 2 2.32 2 3 2 C2.67 3.98 2.34 5.96 2 8 C1.34 8 0.68 8 0 8 C0 5.36 0 2.72 0 0 Z " fill="#C2C7C5" transform="translate(53,94)"/>
</svg>
